#Comment line ignore any data following # character 
#Hierarchical Translation and Rotation (.htr) file 
[Header]	
#Header keywords are followed by a single value 
FileType HTR		#Single word string
DataType HTRS		#Translation followed by rotation and scale data
FileVersion 1		#integer
NumSegments 84		#integer
NumFrames 2		#integer
DataFrameRate 30		#integer, data frame rate in this file
EulerRotationOrder ZYX
CalibrationUnits mm
RotationUnits Degrees
GlobalAxisofGravity Y
BoneLengthAxis Y
ScaleFactor 1.00
[SegmentNames&Hierarchy]
#CHILD	PARENT
MASTER GLOBAL
root MASTER
chest root
L_mid_tent01 root
R_mid_tent01 root
spine01 root
Bip01_Neck chest
L_humerus chest
R_humerus chest
weapon_bone chest
Bip01_Head Bip01_Neck
eye_left_bone Bip01_Head
eye_right_bone Bip01_Head
L_forearm L_humerus
L_front_hand L_forearm
L_weapon_bone L_forearm
L_front_hand01_01 L_front_hand
L_front_hand02_01 L_front_hand
L_front_hand03_01 L_front_hand
L_front_hand01_02 L_front_hand01_01
L_front_hand02_02 L_front_hand02_01
L_front_hand03_02 L_front_hand03_01
R_forearm R_humerus
R_front_hand R_forearm
R_weapon_bone R_forearm
R_front_hand01_01 R_front_hand
R_front_hand02_01 R_front_hand
R_front_hand03_01 R_front_hand
R_front_hand01_02 R_front_hand01_01
R_front_hand02_02 R_front_hand02_01
R_front_hand03_02 R_front_hand03_01
null_rope01_connect L_mid_tent01
Rope1_Seg01 null_rope01_connect
Rope1_Seg02 Rope1_Seg01
Rope1_Seg03 Rope1_Seg02
Rope1_Seg04 Rope1_Seg03
Rope1_Seg05 Rope1_Seg04
Rope1_Seg06 Rope1_Seg05
Rope1_Seg07 Rope1_Seg06
Rope1_Seg09 Rope1_Seg07
L_mid_hand01 Rope1_Seg09
L_mid_hand02 Rope1_Seg09
L_mid_hand03 Rope1_Seg09
null_rope02_connect R_mid_tent01
Rope2_Seg01 null_rope02_connect
Rope2_Seg02 Rope2_Seg01
Rope2_Seg03 Rope2_Seg02
Rope2_Seg04 Rope2_Seg03
Rope2_Seg05 Rope2_Seg04
Rope2_Seg06 Rope2_Seg05
Rope2_Seg07 Rope2_Seg06
Rope2_Seg09 Rope2_Seg07
R_mid_hand01 Rope2_Seg09
R_mid_hand02 Rope2_Seg09
R_mid_hand03 Rope2_Seg09
spine02 spine01
spine03 spine02
pelvis spine03
null_rope03_connect pelvis
null_rope04_connect pelvis
Rope3_Seg01 null_rope03_connect
Rope3_Seg02 Rope3_Seg01
Rope3_Seg03 Rope3_Seg02
Rope3_Seg04 Rope3_Seg03
Rope3_Seg05 Rope3_Seg04
Rope3_Seg06 Rope3_Seg05
Rope3_Seg07 Rope3_Seg06
Rope3_Seg08 Rope3_Seg07
Rope3_Seg09 Rope3_Seg08
R_rear_hand01 Rope3_Seg09
R_rear_hand02 Rope3_Seg09
R_rear_hand03 Rope3_Seg09
Rope4_Seg01 null_rope04_connect
Rope4_Seg02 Rope4_Seg01
Rope4_Seg03 Rope4_Seg02
Rope4_Seg04 Rope4_Seg03
Rope4_Seg05 Rope4_Seg04
Rope4_Seg06 Rope4_Seg05
Rope4_Seg07 Rope4_Seg06
Rope4_Seg08 Rope4_Seg07
Rope4_Seg09 Rope4_Seg08
L_rear_hand01 Rope4_Seg09
L_rear_hand02 Rope4_Seg09
L_rear_hand03 Rope4_Seg09
[BasePosition]
#SegmentName Tx, Ty, Tz, Rx, Ry, Rz, BoneLength
MASTER 0.000000 0.000000 0.000000 -90.000000 0.000000 0.000000 10.000000 
root 0.000000 0.000000 0.000000 0.000000 0.000000 0.000000 10.000000 
chest 0.000000 0.000000 0.000000 0.000000 0.000000 0.000000 10.000000 
L_mid_tent01 0.000000 0.000000 0.000000 0.000000 0.000000 0.000000 10.000000 
R_mid_tent01 0.000000 0.000000 0.000000 0.000000 0.000000 0.000000 10.000000 
spine01 0.000000 0.000000 0.000000 0.000000 0.000000 0.000000 10.000000 
Bip01_Neck 0.000000 0.000000 0.000000 0.000000 0.000000 0.000000 10.000000 
L_humerus 0.000000 0.000000 0.000000 0.000000 0.000000 0.000000 10.000000 
R_humerus 0.000000 0.000000 0.000000 0.000000 0.000000 0.000000 10.000000 
weapon_bone 0.000000 0.000000 0.000000 0.000000 0.000000 0.000000 10.000000 
Bip01_Head 0.000000 0.000000 0.000000 0.000000 0.000000 0.000000 10.000000 
eye_left_bone 0.000000 0.000000 0.000000 0.000000 0.000000 0.000000 10.000000 
eye_right_bone 0.000000 0.000000 0.000000 0.000000 0.000000 0.000000 10.000000 
L_forearm 0.000000 0.000000 0.000000 0.000000 0.000000 0.000000 10.000000 
L_front_hand 0.000000 0.000000 0.000000 0.000000 0.000000 0.000000 10.000000 
L_weapon_bone 0.000000 0.000000 0.000000 0.000000 0.000000 0.000000 10.000000 
L_front_hand01_01 0.000000 0.000000 0.000000 0.000000 0.000000 0.000000 10.000000 
L_front_hand02_01 0.000000 0.000000 0.000000 0.000000 0.000000 0.000000 10.000000 
L_front_hand03_01 0.000000 0.000000 0.000000 0.000000 0.000000 0.000000 10.000000 
L_front_hand01_02 0.000000 0.000000 0.000000 0.000000 0.000000 0.000000 10.000000 
L_front_hand02_02 0.000000 0.000000 0.000000 0.000000 0.000000 0.000000 10.000000 
L_front_hand03_02 0.000000 0.000000 0.000000 0.000000 0.000000 0.000000 10.000000 
R_forearm 0.000000 0.000000 0.000000 0.000000 0.000000 0.000000 10.000000 
R_front_hand 0.000000 0.000000 0.000000 0.000000 0.000000 0.000000 10.000000 
R_weapon_bone 0.000000 0.000000 0.000000 0.000000 0.000000 0.000000 10.000000 
R_front_hand01_01 0.000000 0.000000 0.000000 0.000000 0.000000 0.000000 10.000000 
R_front_hand02_01 0.000000 0.000000 0.000000 0.000000 0.000000 0.000000 10.000000 
R_front_hand03_01 0.000000 0.000000 0.000000 0.000000 0.000000 0.000000 10.000000 
R_front_hand01_02 0.000000 0.000000 0.000000 0.000000 0.000000 0.000000 10.000000 
R_front_hand02_02 0.000000 0.000000 0.000000 0.000000 0.000000 0.000000 10.000000 
R_front_hand03_02 0.000000 0.000000 0.000000 0.000000 0.000000 0.000000 10.000000 
null_rope01_connect 0.000000 0.000000 0.000000 0.000000 0.000000 0.000000 10.000000 
Rope1_Seg01 0.000000 0.000000 0.000000 0.000000 0.000000 0.000000 10.000000 
Rope1_Seg02 0.000000 0.000000 0.000000 0.000000 0.000000 0.000000 10.000000 
Rope1_Seg03 0.000000 0.000000 0.000000 0.000000 0.000000 0.000000 10.000000 
Rope1_Seg04 0.000000 0.000000 0.000000 0.000000 0.000000 0.000000 10.000000 
Rope1_Seg05 0.000000 0.000000 0.000000 0.000000 0.000000 0.000000 10.000000 
Rope1_Seg06 0.000000 0.000000 0.000000 0.000000 0.000000 0.000000 10.000000 
Rope1_Seg07 0.000000 0.000000 0.000000 0.000000 0.000000 0.000000 10.000000 
Rope1_Seg09 0.000000 0.000000 0.000000 0.000000 0.000000 0.000000 10.000000 
L_mid_hand01 0.000000 0.000000 0.000000 0.000000 0.000000 0.000000 10.000000 
L_mid_hand02 0.000000 0.000000 0.000000 0.000000 0.000000 0.000000 10.000000 
L_mid_hand03 0.000000 0.000000 0.000000 0.000000 0.000000 0.000000 10.000000 
null_rope02_connect 0.000000 0.000000 0.000000 0.000000 0.000000 0.000000 10.000000 
Rope2_Seg01 0.000000 0.000000 0.000000 0.000000 0.000000 0.000000 10.000000 
Rope2_Seg02 0.000000 0.000000 0.000000 0.000000 0.000000 0.000000 10.000000 
Rope2_Seg03 0.000000 0.000000 0.000000 0.000000 0.000000 0.000000 10.000000 
Rope2_Seg04 0.000000 0.000000 0.000000 0.000000 0.000000 0.000000 10.000000 
Rope2_Seg05 0.000000 0.000000 0.000000 0.000000 0.000000 0.000000 10.000000 
Rope2_Seg06 0.000000 0.000000 0.000000 0.000000 0.000000 0.000000 10.000000 
Rope2_Seg07 0.000000 0.000000 0.000000 0.000000 0.000000 0.000000 10.000000 
Rope2_Seg09 0.000000 0.000000 0.000000 0.000000 0.000000 0.000000 10.000000 
R_mid_hand01 0.000000 0.000000 0.000000 0.000000 0.000000 0.000000 10.000000 
R_mid_hand02 0.000000 0.000000 0.000000 0.000000 0.000000 0.000000 10.000000 
R_mid_hand03 0.000000 0.000000 0.000000 0.000000 0.000000 0.000000 10.000000 
spine02 0.000000 0.000000 0.000000 0.000000 0.000000 0.000000 10.000000 
spine03 0.000000 0.000000 0.000000 0.000000 0.000000 0.000000 10.000000 
pelvis 0.000000 0.000000 0.000000 0.000000 0.000000 0.000000 10.000000 
null_rope03_connect 0.000000 0.000000 0.000000 0.000000 0.000000 0.000000 10.000000 
null_rope04_connect 0.000000 0.000000 0.000000 0.000000 0.000000 0.000000 10.000000 
Rope3_Seg01 0.000000 0.000000 0.000000 0.000000 0.000000 0.000000 10.000000 
Rope3_Seg02 0.000000 0.000000 0.000000 0.000000 0.000000 0.000000 10.000000 
Rope3_Seg03 0.000000 0.000000 0.000000 0.000000 0.000000 0.000000 10.000000 
Rope3_Seg04 0.000000 0.000000 0.000000 0.000000 0.000000 0.000000 10.000000 
Rope3_Seg05 0.000000 0.000000 0.000000 0.000000 0.000000 0.000000 10.000000 
Rope3_Seg06 0.000000 0.000000 0.000000 0.000000 0.000000 0.000000 10.000000 
Rope3_Seg07 0.000000 0.000000 0.000000 0.000000 0.000000 0.000000 10.000000 
Rope3_Seg08 0.000000 0.000000 0.000000 0.000000 0.000000 0.000000 10.000000 
Rope3_Seg09 0.000000 0.000000 0.000000 0.000000 0.000000 0.000000 10.000000 
R_rear_hand01 0.000000 0.000000 0.000000 0.000000 0.000000 0.000000 10.000000 
R_rear_hand02 0.000000 0.000000 0.000000 0.000000 0.000000 0.000000 10.000000 
R_rear_hand03 0.000000 0.000000 0.000000 0.000000 0.000000 0.000000 10.000000 
Rope4_Seg01 0.000000 0.000000 0.000000 0.000000 0.000000 0.000000 10.000000 
Rope4_Seg02 0.000000 0.000000 0.000000 0.000000 0.000000 0.000000 10.000000 
Rope4_Seg03 0.000000 0.000000 0.000000 0.000000 0.000000 0.000000 10.000000 
Rope4_Seg04 0.000000 0.000000 0.000000 0.000000 0.000000 0.000000 10.000000 
Rope4_Seg05 0.000000 0.000000 0.000000 0.000000 0.000000 0.000000 10.000000 
Rope4_Seg06 0.000000 0.000000 0.000000 0.000000 0.000000 0.000000 10.000000 
Rope4_Seg07 0.000000 0.000000 0.000000 0.000000 0.000000 0.000000 10.000000 
Rope4_Seg08 0.000000 0.000000 0.000000 0.000000 0.000000 0.000000 10.000000 
Rope4_Seg09 0.000000 0.000000 0.000000 0.000000 0.000000 0.000000 10.000000 
L_rear_hand01 0.000000 0.000000 0.000000 0.000000 0.000000 0.000000 10.000000 
L_rear_hand02 0.000000 0.000000 0.000000 0.000000 0.000000 0.000000 10.000000 
L_rear_hand03 0.000000 0.000000 0.000000 0.000000 0.000000 0.000000 10.000000 
#Beginning of Data. Separated by tabs
#Fr	Tx	Ty	Tz	Rx	Ry	Rz	SF
[MASTER]
17 -2002.069946 0.000302 0.000000 0.002347 0.000000 89.997704 2002.069946
18 -2097.724365 0.000317 0.000000 0.002347 0.000000 89.997704 2097.724365
[root]
17 -62.822117 16.502380 1265.509644 140.092972 -30.110350 178.574219 1267.175415
18 -62.822117 16.502380 1287.587280 154.452118 -31.277090 177.283844 1289.224609
[chest]
17 -84.512650 -34.090519 0.000000 -125.428055 14.632299 -175.626556 91.129311
18 -84.512650 -34.090519 0.000000 -111.742271 13.304446 -174.458969 91.129311
[L_mid_tent01]
17 27.460032 22.085569 -250.949707 -29.656883 4.514482 19.780836 253.411880
18 27.437077 22.098692 -250.802307 -29.180187 6.160440 21.582850 253.264572
[R_mid_tent01]
17 23.228794 24.509907 226.238495 -137.003235 -6.542137 7.495724 228.744751
18 23.228794 24.509907 226.238495 -136.024536 -1.268569 6.663013 228.744751
[spine01]
17 -0.361383 -0.195265 0.000000 37.141651 1.770748 -2.174264 0.410763
18 -0.361383 -0.195265 0.000000 38.164318 1.587963 -1.453488 0.410763
[Bip01_Neck]
17 165.484543 71.581718 0.000119 175.896118 1.177290 24.871183 180.302734
18 165.484543 71.581718 0.000119 175.896118 1.177290 24.871183 180.302734
[L_humerus]
17 -13.983130 -135.272980 -120.471481 170.940796 81.564224 -99.189163 181.680161
18 -13.983130 -135.272980 -120.471481 170.940796 81.564224 -99.189163 181.680161
[R_humerus]
17 -13.983309 -135.273102 125.287651 -159.666046 -68.957870 -101.166077 184.909012
18 -13.983309 -135.273102 125.287651 -159.666046 -68.957870 -101.166077 184.909012
[weapon_bone]
17 235.964890 -300.705902 0.000000 0.000000 -89.951546 -128.212341 382.234833
18 235.964890 -300.705902 0.000000 0.000000 -89.951546 -128.212341 382.234833
[Bip01_Head]
17 261.355865 108.959442 -2.864116 2.248029 5.843378 -62.458351 283.173523
18 261.355865 108.959450 -2.864111 2.248029 5.843377 -62.458344 283.173553
[eye_left_bone]
17 -24.626970 125.451866 -64.772606 0.000000 -90.000000 -99.840431 143.318359
18 -24.626970 125.451866 -64.772606 0.000000 -90.000000 -99.840431 143.318359
[eye_right_bone]
17 -24.626970 125.451866 64.327362 0.000000 -89.960434 80.159386 143.117676
18 -24.626970 125.451866 64.327362 0.000000 -89.960434 80.159386 143.117676
[L_forearm]
17 322.776093 0.000000 -0.000119 0.000471 0.002300 -66.859398 322.776093
18 322.776093 0.000000 -0.000119 0.000471 0.002300 -66.859383 322.776093
[L_front_hand]
17 241.149185 -0.042021 -3.300071 -178.667953 -1.835447 -27.422350 241.171753
18 241.149185 -0.042021 -3.300071 -178.667953 -1.835447 -27.422350 241.171753
[L_weapon_bone]
17 156.183838 0.000000 0.000000 0.001660 0.001660 0.001660 156.183838
18 156.183838 0.000000 0.000000 0.001660 0.001660 0.001660 156.183838
[L_front_hand01_01]
17 86.095154 20.947098 -0.655860 0.211241 -0.560884 17.357290 88.609184
18 86.095154 20.947098 -0.655860 0.171154 -0.573704 21.180222 88.609184
[L_front_hand02_01]
17 86.935165 -11.437475 24.513514 118.065666 -15.915234 -8.667751 91.046425
18 86.935165 -11.437475 24.513514 118.645042 -19.279860 -10.569485 91.046425
[L_front_hand03_01]
17 86.637497 -14.123976 -20.424902 -119.358360 14.637108 -10.761033 90.126129
18 86.637497 -14.123976 -20.424902 -119.911827 17.962019 -12.727839 90.126129
[L_front_hand01_02]
17 71.020905 -0.000179 0.000030 0.000922 0.002159 -43.760223 71.020905
18 71.020905 -0.000179 0.000030 0.000837 0.002193 -48.241432 71.020905
[L_front_hand02_02]
17 71.020927 -0.000119 0.000060 0.000922 0.002159 -43.760223 71.020927
18 71.020927 -0.000119 0.000060 0.000837 0.002193 -48.241432 71.020927
[L_front_hand03_02]
17 71.020905 -0.000060 0.000060 0.000922 0.002159 -43.760223 71.020905
18 71.020905 -0.000060 0.000060 0.000837 0.002193 -48.241432 71.020905
[R_forearm]
17 322.776428 -0.000060 0.000030 0.199694 -0.075621 -69.903069 322.776428
18 322.776428 -0.000060 0.000030 0.199694 -0.075621 -69.903069 322.776428
[R_front_hand]
17 238.847015 -0.006795 2.210259 -1.531694 0.790216 -51.443054 238.857239
18 238.847015 -0.006795 2.210259 -1.531694 0.790216 -51.443062 238.857239
[R_weapon_bone]
17 155.664093 0.002503 -0.000030 0.003487 0.001180 -90.988930 155.664078
18 155.664093 0.002503 -0.000030 0.003487 0.001180 -90.988930 155.664078
[R_front_hand01_01]
17 87.624611 14.231146 22.918642 -118.091415 -16.042309 8.845704 91.683487
18 87.624611 14.231146 22.918642 -118.669006 -19.407516 10.750248 91.683487
[R_front_hand02_01]
17 89.356956 14.367283 -19.491137 119.433098 15.033600 11.237807 92.579636
18 89.356956 14.367283 -19.491137 120.003609 18.355684 13.212110 92.579636
[R_front_hand03_01]
17 87.286232 -22.307278 -0.143439 -0.272309 -0.361186 -17.744339 90.091743
18 87.286232 -22.307278 -0.143439 -0.248554 -0.377927 -21.564304 90.091743
[R_front_hand01_02]
17 71.020905 0.000060 0.000119 0.002159 0.000922 43.758469 71.020905
18 71.020905 0.000060 0.000119 0.002193 0.000837 48.239647 71.020905
[R_front_hand02_02]
17 71.020844 -0.000030 -0.000119 0.002159 0.000922 43.758469 71.020836
18 71.020844 -0.000030 -0.000119 0.002193 0.000837 48.239647 71.020836
[R_front_hand03_02]
17 71.020905 0.000000 0.000030 0.002159 0.000922 43.758469 71.020905
18 71.020905 0.000000 0.000030 0.002193 0.000837 48.239647 71.020905
[null_rope01_connect]
17 328.732483 0.000000 -0.000238 -169.827209 68.837471 -128.543076 328.732483
18 328.732483 0.000000 -0.000238 -161.504608 55.486786 -123.705109 328.732483
[Rope1_Seg01]
17 0.000000 0.000000 0.000000 7.544099 -52.279427 105.595352 0.000000
18 0.000000 0.000000 0.000000 -8.245467 -42.923519 126.290840 0.000000
[Rope1_Seg02]
17 139.999863 -0.000179 0.000000 -3.204007 17.438553 -11.423229 139.999863
18 139.999863 -0.000179 0.000000 -3.624069 19.365543 -15.172644 139.999863
[Rope1_Seg03]
17 139.999924 0.000060 -0.000060 -11.552564 24.479740 -15.820253 139.999924
18 139.999924 0.000060 -0.000060 -9.840804 23.380463 -18.297184 139.999924
[Rope1_Seg04]
17 139.999924 -0.000060 -0.000119 -22.995182 19.585871 -8.684000 139.999924
18 139.999924 -0.000060 -0.000119 -14.249009 15.480365 -9.176744 139.999924
[Rope1_Seg05]
17 139.999832 0.000119 -0.000060 -31.135294 11.879527 -0.011094 139.999832
18 139.999832 0.000119 -0.000060 -27.551302 11.468249 -2.916054 139.999832
[Rope1_Seg06]
17 139.999954 0.000119 -0.000060 -36.367184 9.664414 6.210181 139.999954
18 139.999954 0.000119 -0.000060 -51.398026 11.826286 3.104847 139.999954
[Rope1_Seg07]
17 139.999985 0.000060 0.000000 -19.597673 3.485460 8.960871 139.999985
18 139.999985 0.000060 0.000000 -24.977486 3.797743 8.251988 139.999985
[Rope1_Seg09]
17 121.602913 0.000119 -0.000089 -89.793175 -1.359789 0.847147 121.602913
18 121.602913 0.000119 -0.000089 -89.793175 -1.359789 0.847147 121.602913
[L_mid_hand01]
17 103.859421 1.038730 8.195221 104.645828 -11.341451 -3.472799 104.187431
18 103.859421 1.038730 8.195221 104.791466 -13.822902 -4.141279 104.187431
[L_mid_hand02]
17 105.572853 -4.139662 -10.864139 -136.851318 12.264257 -12.172828 106.211075
18 105.572853 -4.139662 -10.864139 -137.292099 14.014200 -14.102406 106.211075
[L_mid_hand03]
17 104.641464 17.579376 -3.913581 -18.441504 3.536872 14.376384 106.179977
18 104.641464 17.579376 -3.913581 -18.272455 4.345789 16.819996 106.179977
[null_rope02_connect]
17 328.732849 0.000179 -0.000119 30.541834 2.758761 101.183311 328.732849
18 328.732849 0.000179 -0.000119 35.879684 16.698692 99.223419 328.732849
[Rope2_Seg01]
17 0.000047 0.000101 0.000041 -36.778961 -34.815006 -156.100006 0.000119
18 0.000053 0.000102 0.000037 -39.002491 -29.090473 -153.439972 0.000121
[Rope2_Seg02]
17 139.999741 -0.000060 -0.000119 0.550254 14.560075 -15.502120 139.999756
18 139.999741 -0.000060 -0.000119 -0.634692 16.269070 -10.495075 139.999756
[Rope2_Seg03]
17 140.000107 0.000030 0.000000 8.652356 18.386173 -22.465729 140.000107
18 140.000107 0.000030 0.000000 1.657942 22.704739 -16.107546 140.000107
[Rope2_Seg04]
17 139.999802 0.000000 -0.000060 25.212070 9.924493 -18.463518 139.999802
18 139.999802 0.000000 -0.000060 16.141937 16.850601 -13.989836 139.999802
[Rope2_Seg05]
17 139.999985 -0.000060 0.000119 42.851837 1.958081 -17.861191 139.999985
18 139.999985 -0.000060 0.000119 96.475189 11.735511 -15.184701 139.999985
[Rope2_Seg06]
17 139.999893 -0.000030 -0.000119 30.715891 -8.937246 -12.484324 139.999893
18 139.999893 -0.000030 -0.000119 37.844013 -14.000359 -8.882561 139.999893
[Rope2_Seg07]
17 139.999893 0.000060 -0.000060 9.819378 -8.097817 -3.501962 139.999893
18 139.999893 0.000060 -0.000060 4.632233 -9.007369 1.002019 139.999893
[Rope2_Seg09]
17 121.338966 0.000089 -0.000060 33.793236 -1.359788 -0.847141 121.338966
18 121.338966 0.000089 -0.000060 33.793236 -1.359788 -0.847141 121.338966
[R_mid_hand01]
17 104.680779 11.144459 -10.335981 -46.201900 12.323607 14.293468 105.778534
18 104.680779 11.144459 -10.335981 -45.829594 13.966291 15.923307 105.778534
[R_mid_hand02]
17 104.070427 2.443552 8.231699 75.146904 -14.653768 4.372539 104.424065
18 104.070427 2.443552 8.231699 74.979683 -16.862888 4.983314 104.424065
[R_mid_hand03]
17 106.028137 -11.221827 -5.996406 -165.285202 5.858132 -18.535969 106.788818
18 106.028137 -11.221827 -5.996406 -165.527451 6.433964 -20.763390 106.788818
[spine02]
17 129.756927 0.001550 0.000119 -0.245322 -4.052059 -4.355546 129.756927
18 129.756927 0.001550 0.000119 -0.245322 -4.052060 -4.355547 129.756927
[spine03]
17 78.613831 0.087128 -4.898723 0.369659 4.260734 -4.885720 78.766357
18 78.613838 0.087128 -4.898718 0.369658 4.260732 -4.885719 78.766365
[pelvis]
17 169.435242 0.051022 0.000000 -0.010033 -0.192936 -1.867117 169.435257
18 169.435242 0.051022 0.000000 -0.010027 -0.192556 -1.874726 169.435257
[null_rope03_connect]
17 -1.257226 -2.466202 137.391083 -149.936203 2.995645 -77.305649 137.418976
18 -1.257226 -2.466202 137.391083 -147.945084 -11.658710 -79.165054 137.418976
[null_rope04_connect]
17 -1.259640 -2.480268 -137.844437 -149.936203 2.995645 -77.305649 137.872513
18 -1.259640 -2.480268 -137.844437 -147.945084 -11.658710 -79.165054 137.872513
[Rope3_Seg01]
17 0.000000 0.000000 0.000000 26.696127 19.199450 -44.830296 0.000000
18 0.000000 0.000000 0.000000 18.455275 7.772796 -37.041077 0.000000
[Rope3_Seg02]
17 139.999924 -0.000119 0.000060 8.927872 11.751259 -4.749991 139.999924
18 139.999924 -0.000119 0.000060 11.147285 12.596641 -1.298867 139.999924
[Rope3_Seg03]
17 139.999924 -0.000119 0.000119 16.589050 23.015566 -14.943351 139.999924
18 139.999924 -0.000119 0.000119 27.319120 25.912285 -8.711509 139.999924
[Rope3_Seg04]
17 139.999924 0.000119 0.000000 10.140514 19.996027 -27.437557 139.999924
18 139.999924 0.000119 0.000000 19.622141 21.774920 -26.225254 139.999924
[Rope3_Seg05]
17 139.999924 -0.000238 0.000060 1.969694 11.533597 -25.192638 139.999924
18 139.999924 -0.000238 0.000060 6.481510 9.532351 -25.789795 139.999924
[Rope3_Seg06]
17 139.999893 -0.000119 -0.000060 -1.365237 7.222655 -17.702564 139.999893
18 139.999893 -0.000119 -0.000060 1.194618 4.849115 -18.573784 139.999893
[Rope3_Seg07]
17 139.999771 0.000060 -0.000119 -0.941538 3.150387 -7.778274 139.999771
18 139.999771 0.000060 -0.000119 0.039470 1.730244 -8.319697 139.999771
[Rope3_Seg08]
17 139.999985 -0.000060 0.000000 -0.348685 1.598316 -3.827316 139.999985
18 139.999985 -0.000060 0.000000 0.100569 0.826802 -4.123316 139.999985
[Rope3_Seg09]
17 90.185997 -0.000179 -0.000060 89.793228 -1.359877 -0.847183 90.185997
18 90.185997 -0.000179 -0.000060 89.793228 -1.359877 -0.847183 90.185997
[R_rear_hand01]
17 103.366196 -6.073594 -10.757982 -156.890808 8.867678 -9.260687 104.101845
18 103.366196 -6.073594 -10.757982 -157.358185 10.054737 -12.115294 104.101845
[R_rear_hand02]
17 100.509819 12.039542 -7.992327 -38.311344 6.310308 10.942962 101.543350
18 100.509819 12.039542 -7.992327 -38.001770 8.202547 13.368593 101.543350
[R_rear_hand03]
17 101.539970 5.215704 5.435467 84.240326 -9.319661 4.797911 101.819031
18 101.539970 5.215704 5.435467 84.177414 -12.362664 5.114734 101.819031
[Rope4_Seg01]
17 -0.000032 0.000000 -0.000098 -154.266068 -45.214798 -44.103863 0.000103
18 -0.000032 0.000000 -0.000104 -159.355240 -56.906399 -47.664997 0.000108
[Rope4_Seg02]
17 139.999985 0.000060 0.000119 -25.797369 -19.776834 -20.164875 139.999985
18 139.999985 0.000060 0.000119 -22.151821 -12.537650 -24.119402 139.999985
[Rope4_Seg03]
17 139.999924 0.000000 -0.000238 -109.326622 -10.877268 -55.963032 139.999924
18 139.999924 0.000000 -0.000238 -81.131813 -0.222332 -56.366089 139.999924
[Rope4_Seg04]
17 139.999985 0.000000 0.000119 -3.488986 23.495394 3.314693 139.999985
18 139.999985 0.000000 0.000119 -10.149871 23.969404 -5.711275 139.999985
[Rope4_Seg05]
17 139.999802 -0.000060 -0.000119 -2.916056 10.980350 -4.946863 139.999802
18 139.999802 -0.000060 -0.000119 -4.130054 9.208312 -7.211596 139.999802
[Rope4_Seg06]
17 139.999924 0.000000 0.000060 -1.360079 8.222783 -4.376540 139.999924
18 139.999924 0.000000 0.000060 -2.435414 6.749000 -5.986901 139.999924
[Rope4_Seg07]
17 139.999802 0.000000 0.000000 -0.168162 5.100710 -1.367272 139.999802
18 139.999802 0.000000 0.000000 -0.807299 4.626343 -2.377340 139.999802
[Rope4_Seg08]
17 139.999924 0.000000 0.000119 -1.499584 3.072862 -0.815385 139.999924
18 139.999924 0.000000 0.000119 -1.877988 2.803658 -1.395088 139.999924
[Rope4_Seg09]
17 90.185791 0.000060 0.000060 -135.617828 2.228885 0.850567 90.185791
18 90.185791 0.000060 0.000060 -135.617828 2.228885 0.850567 90.185791
[L_rear_hand01]
17 101.696655 -8.392275 -7.654577 -38.541737 -4.340775 171.553604 102.329041
18 101.696655 -8.392275 -7.654577 -38.308769 -6.335740 169.028763 102.329041
[L_rear_hand02]
17 102.726799 -1.568258 5.773216 84.278557 6.160368 175.519302 102.900848
18 102.726799 -1.568258 5.773216 84.234558 9.357846 175.196030 102.900848
[L_rear_hand03]
17 104.552910 9.721220 -10.420293 -156.464783 -7.606923 -173.684799 105.519653
18 104.552910 9.721220 -10.420293 -156.893646 -8.879512 -170.705887 105.519653
